<svg width="195" height="143" viewBox="0 0 195 143" fill="none" xmlns="http://www.w3.org/2000/svg">
<path d="M83 100.5C83 123.972 64.4198 143 41.5 143C18.5802 143 0 123.972 0 100.5C0 77.0279 18.5802 58 41.5 58C64.4198 58 83 77.0279 83 100.5Z" fill="white"/>
<ellipse cx="151" cy="100.5" rx="44" ry="42.5" fill="white"/>
<rect x="42" y="58" width="109" height="85" fill="white"/>
<path d="M163 46.5C163 72.1812 141.286 93 114.5 93C87.7142 93 66 72.1812 66 46.5C66 20.8188 87.7142 0 114.5 0C141.286 0 163 20.8188 163 46.5Z" fill="white"/>
</svg>
