<svg width="253" height="136" viewBox="0 0 253 136" fill="none" xmlns="http://www.w3.org/2000/svg">
<path d="M204.748 93H51.1281C51.1281 93 -7.95692 78.9982 0.905951 67.4047C6.69338 59.8342 14.6926 57.1666 14.6926 57.1666L11.881 3.57583C11.8001 2.03349 12.9026 0.687371 14.4382 0.522364C18.6266 0.0723123 26.7925 -0.523046 32.418 0.856977C40.278 2.78518 66.884 41.8094 66.884 41.8094H204.748C225.22 41.8094 253 58.1904 253 74.5714C253 90.9524 225.22 93 204.748 93Z" fill="#BDBCBC"/>
<path d="M79.3676 135.195C64.2968 135.195 104.694 71 104.694 71H179C179 71 137.041 129.234 104.694 135.195C101.5 135.783 97.7872 135.195 79.3676 135.195Z" fill="#A8A8A8"/>
<path fill-rule="evenodd" clip-rule="evenodd" d="M252.916 73H1.28026C0.755571 72.3329 0.380361 71.6653 0.176758 71H252.572C252.729 71.6651 252.845 72.3321 252.916 73Z" fill="#868181"/>
<path fill-rule="evenodd" clip-rule="evenodd" d="M210.587 42.2168C224.401 44.0714 239.888 52.0492 247.773 61.82C239.941 63.138 208.226 66.9772 210.587 42.2168Z" fill="#27ABCF"/>
</svg>
